<?xml version="1.0" encoding="UTF-8" standalone="no"?>
<svg width="59" height="19" viewBox="0 0 59 19" xmlns="http://www.w3.org/2000/svg" version="1.2" baseProfile="tiny">
	<g fill="#5010d0" fill-opacity="1" stroke="none" transform="matrix(1,0,0,1,0,0)" font-family="Arial" font-size="13" font-weight="400" font-style="normal">
		<path vector-effect="none" fill-rule="evenodd" d="M2,0 L57,0 C58.104,0 59,0.896 59,2 L59,16 C59,17.104 58.104,18 57,18 L2,18 C0.896,18 0,17.104 0,16 L0,2 C0,0.896 0.896,0 2,0"/>
	</g>
	<g fill="#000000" fill-opacity="0.117647" stroke="none" transform="matrix(1,0,0,1,0,-1)" font-family="Arial" font-size="13" font-weight="400" font-style="normal" >
		<path vector-effect="none" fill-rule="evenodd" d="M2,0 L59,0 L59,19 L0,19 L0,0 M2,0 L57,0 C58.104,0 59,0.896 59,2 L59,16 C59,17.104 58.104,18 57,18 L2,18 C0.896,18 0,17.104 0,16 L0,2 C0,0.896 0.896,0 2,0"/>
	</g>
	<g fill="#ffffff" fill-opacity="1" stroke="#ffffff" stroke-opacity="1" stroke-width="1" stroke-linecap="square" stroke-linejoin="bevel" transform="matrix(1,0,0,1,0,0)" font-family="Arial" font-size="12" font-weight="700" font-style="normal">
		<text fill="#ffffff" fill-opacity="1" stroke="none" x="4" y="13" font-family="Arial" font-size="12" font-weight="700" font-style="normal">priority:1</text>
	</g>
</svg>
